<svg version="1" xmlns="http://www.w3.org/2000/svg" width="560" height="560" viewBox="0 0 420.000000 420.000000"><path d="M25.5 55.7c-4.6 2.4-7.6 5.4-9.6 9.8-1.8 3.8-1.9 9.9-1.9 145.3 0 136.6.1 141.5 1.9 145 2.4 4.7 5.6 7.7 10.3 9.7 3.3 1.3 23.6 1.5 184.1 1.5h180.3l4.4-2.3c2.4-1.2 5.8-3.9 7.4-6l3.1-3.9.3-142.7.2-142.6-2.2-4.5c-1.3-2.4-4-5.8-6.1-7.4l-3.9-3.1-182.6-.2c-165-.2-183-.1-185.7 1.4zM142 103.6c11.2 2.5 26.6 8.7 35.2 14.4 13.1 8.6 23.8 22.2 30.5 39 .9 2.4 1.2 2.1 4.6-5.2 4.4-9.5 8.5-15.7 15.6-23.1 16-16.8 44.3-27.8 71.5-27.8 24.9 0 45.5 10.5 57.7 29.3 16.8 26 10.6 69.7-15.3 108.1-7 10.5-9.6 13.6-20.3 24.2-9.8 9.7-11.7 11.4-24.5 21-20.7 15.7-41.4 28.4-58.3 35.7-11.3 4.9-26.2 9.8-29.8 9.8-4.4 0-23.5-6.8-35.8-12.6-20.1-9.7-42.5-24.3-64.1-41.8-6.7-5.5-24.3-23.9-29.2-30.6-13-17.8-23.3-40-26.2-56-3.2-17.4-3.1-31.6.1-42.5 7.6-25.4 31.9-43.6 59.3-44.4 4.1-.1 7.6-.4 7.7-.5.5-.5 14 1.4 21.3 3z"/><path d="M119.4 145.4c-9.6 3.2-16.7 9.4-21.1 18.5-2.4 4.8-2.8 6.9-2.8 14.1 0 7.6.4 9.3 3.3 15.2 10.2 20.7 36.9 25.4 53.5 9.5 7.2-7 10.2-14.2 10.2-24.7-.1-10.2-2.8-17-9.5-23.8-8.7-8.6-22.9-12.3-33.6-8.8zM278.5 145.4c-9.5 3-16.7 9.2-21.2 18.4-2.4 4.9-2.8 6.9-2.8 14.2.1 10.3 2.9 17.5 9.7 24.2 16.7 16.7 44.6 11.6 54.6-10 2.2-4.7 2.7-7.1 2.7-14.2 0-7.3-.4-9.3-2.8-14.2-5.8-11.8-16.5-18.9-29-19.4-4-.1-9 .3-11.2 1zM204.2 219.3c-13.1 19.8-17 34.6-11.2 42.7 2.8 3.9 9.8 6.4 18 6.4 22.4 0 23.9-20.3 3.8-52.1-2.2-3.5-4.1-6.3-4.2-6.3-.1 0-3 4.2-6.4 9.3z"/></svg>